PathFileType	4	(X/Y/Z)	 s04c0302.trc
DataRate	CameraRate	NumFrames	NumMarkers	Units	OrigDataRate	OrigDataStartFrame	OrigNumFrames
200	200	4	50	mm	200	1751	2000
Frame#	Time	racr			lacr			c7			jug			rlel			rdr			llel			ldr			s2			lic			ric			lasi			rasi			rpsi			lpsi			rgt			lgt			rth1			rth2			rth3			rth4			rlfc			rmfc			rsh1			rsh2			rsh3			rsh4			rlmal			rmmal			rcal			rtoe			rmt5			lth1			lth2			lth4			lth3			llfc			lmfc			lsh1			lsh2			lsh3			lsh4			llmal			lmmal			lcal			ltoe			lmt5			SBIKE			LBIKE			RBIKE			
		X1	Y1	Z1	X2	Y2	Z2	X3	Y3	Z3	X4	Y4	Z4	X5	Y5	Z5	X6	Y6	Z6	X7	Y7	Z7	X8	Y8	Z8	X9	Y9	Z9	X10	Y10	Z10	X11	Y11	Z11	X12	Y12	Z12	X13	Y13	Z13	X14	Y14	Z14	X15	Y15	Z15	X16	Y16	Z16	X17	Y17	Z17	X18	Y18	Z18	X19	Y19	Z19	X20	Y20	Z20	X21	Y21	Z21	X22	Y22	Z22	X23	Y23	Z23	X24	Y24	Z24	X25	Y25	Z25	X26	Y26	Z26	X27	Y27	Z27	X28	Y28	Z28	X29	Y29	Z29	X30	Y30	Z30	X31	Y31	Z31	X32	Y32	Z32	X33	Y33	Z33	X34	Y34	Z34	X35	Y35	Z35	X36	Y36	Z36	X37	Y37	Z37	X38	Y38	Z38	X39	Y39	Z39	X40	Y40	Z40	X41	Y41	Z41	X42	Y42	Z42	X43	Y43	Z43	X44	Y44	Z44	X45	Y45	Z45	X46	Y46	Z46	X47	Y47	Z47	X48	Y48	Z48	X49	Y49	Z49	X50	Y50	Z50	
1751	8.7550	637.814879	1389.312225	-70.096142	644.254123	1393.827411	-372.540485	650.716414	1449.190326	-221.699093	607.222520	1306.739980	-229.146398	555.812501	1118.253683	75.358649	700.859913	911.869247	-62.991320	562.845277	1156.001800	-529.722299	705.988375	917.819296	-446.683842	57.732783	1278.223396	-231.654565	211.072995	1275.897850	-388.872730	215.423041	1248.203407	-73.059356	241.028417	1218.703557	-350.548796	248.318996	1189.740606	-118.188192	95.842210	1313.045317	-184.763496	93.857122	1323.479277	-260.360817	155.054123	1191.357314	-62.621038	160.626038	1203.521819	-429.558949	219.031072	1040.950363	-46.018469	260.095007	964.345884	-59.392546	260.819294	878.902707	-66.926634	290.739556	975.104841	-79.367054	283.250713	734.296636	-95.278796	260.332398	723.105247	-207.998241	206.292502	628.150188	-77.739269	181.053837	542.186692	-97.332526	116.318026	486.590301	-109.631314	210.777293	530.054179	-119.450354	46.354751	354.159316	-126.075485	74.576353	356.213672	-208.022295	-20.994922	362.251442	-168.024875	225.528313	188.430079	-153.587545	155.116832	204.718480	-100.431975	215.309826	1137.878612	-444.639566	294.556207	1103.623161	-453.645594	317.268650	1129.993838	-441.439660	347.168723	1032.998016	-466.339799	455.700084	907.838229	-454.055451	493.974610	882.975574	-347.715265	423.268445	791.570913	-477.547715	403.677380	709.342732	-453.751956	344.738136	642.989755	-449.561678	428.476360	701.663698	-424.538718	273.294590	515.039278	-436.986781	267.274709	520.578080	-350.786903	189.617244	500.129606	-394.898125	488.281282	459.141181	-401.173713	414.294780	428.633668	-462.430165	-176.874426	935.587589	-279.299674	-2.861097	86.303904	-485.004066	-15.025746	80.533434	-84.166287	
1752	8.7600	635.230177	1389.529494	-69.733595	642.077821	1393.847723	-372.599150	648.293172	1449.253337	-221.478501	604.837608	1306.931351	-228.983219	554.933863	1117.924192	75.318016	700.770846	911.860275	-62.851349	561.383498	1155.510613	-529.400405	705.853172	918.024520	-446.644291	55.478227	1278.548427	-232.082326	209.111476	1275.635721	-388.941807	212.879849	1248.987421	-73.159896	238.944762	1218.391414	-350.524456	246.799061	1190.589875	-116.696586	93.655170	1313.162861	-185.246566	91.484901	1323.705906	-260.892350	153.014594	1192.314285	-62.578330	158.069392	1203.076153	-429.710358	217.070225	1041.434456	-46.438996	259.079740	965.269491	-59.474669	260.669113	879.823870	-67.289942	289.764584	976.336122	-79.241150	284.519646	735.480143	-95.605061	261.064440	724.399091	-208.188453	207.391667	629.488523	-77.746016	182.267512	543.482572	-97.203262	117.449134	487.856602	-109.380612	211.890806	531.287177	-119.500874	47.434939	355.301788	-125.610159	75.545341	357.320665	-207.682330	-19.794611	364.042695	-167.639873	225.182968	188.154202	-153.692357	154.975449	204.934123	-100.394673	212.640529	1137.044126	-444.781549	291.731374	1102.495690	-453.857831	314.582018	1128.868782	-441.884913	344.098909	1031.628683	-466.260958	452.282630	906.182616	-453.916982	490.798471	881.846773	-347.462658	420.306954	789.924147	-476.927245	401.124975	707.652284	-453.361791	342.610069	640.931960	-449.123713	426.136001	699.843596	-423.960351	271.914373	512.785552	-436.700204	266.046254	518.075333	-350.350030	188.628421	496.710076	-394.571067	487.755347	459.933848	-401.187157	414.180237	428.406319	-462.431610	-176.865252	935.582242	-279.259279	-2.840616	86.317576	-485.002447	-15.013874	80.540907	-84.158717	
1753	8.7650	632.607765	1389.750721	-69.625675	639.814825	1393.797444	-372.504690	645.812298	1449.357399	-221.276431	602.457066	1307.097520	-228.721189	553.974108	1117.585832	75.142999	700.661488	911.862319	-62.733155	559.904827	1155.017626	-529.250552	705.669172	918.255228	-446.614615	53.193126	1278.911178	-232.568507	207.219731	1275.348651	-388.975418	210.241628	1249.709308	-73.270990	236.920122	1218.136366	-350.469461	245.123285	1191.279393	-115.396781	91.589265	1313.565871	-185.929995	89.172009	1324.083440	-261.537487	150.874773	1193.184670	-62.623064	155.654400	1202.596961	-430.001654	215.049496	1041.785923	-46.778108	257.941133	966.041312	-59.596404	260.519796	880.651911	-67.627206	288.617229	977.492227	-79.190321	285.771587	736.722105	-95.856166	262.112998	725.527558	-208.372144	208.844769	630.649842	-77.714536	183.425594	544.713177	-97.115114	118.651071	488.948256	-109.033775	213.058041	532.511580	-119.393431	48.624704	356.487681	-125.093100	76.660751	358.430988	-207.273501	-18.593895	365.954632	-167.245007	224.831100	187.821943	-153.789043	154.837167	205.185005	-100.354614	209.998973	1136.165125	-444.901353	288.938583	1101.263364	-453.968132	311.890624	1127.659318	-442.370299	340.998324	1030.119912	-466.103739	449.018763	904.647902	-453.557478	487.606811	880.577464	-347.190343	417.209505	788.407535	-476.344893	398.533419	705.925923	-452.989038	340.400396	638.829840	-448.686227	423.626150	698.207725	-423.703675	270.498544	510.539513	-436.457071	264.828166	515.608544	-350.038437	187.681538	493.132693	-394.237678	487.212387	460.648647	-401.317929	414.085616	428.071267	-462.420886	-176.856762	935.601045	-279.243312	-2.831813	86.326901	-484.982073	-15.012645	80.547409	-84.152903	
1754	8.7700	630.141267	1389.862318	-69.267290	637.615220	1393.718981	-372.558023	643.316968	1449.538938	-221.092793	600.062190	1307.239157	-228.513516	553.038528	1117.266158	74.960270	700.559830	911.895192	-62.645287	558.513865	1154.541719	-529.086226	705.483619	918.363159	-446.634498	50.970925	1279.188916	-233.281677	205.332419	1275.025740	-389.007354	207.544692	1250.255586	-73.347472	234.807759	1217.824137	-350.317849	243.342693	1191.801908	-114.233799	89.628575	1313.628414	-186.909862	86.579503	1324.639138	-262.413549	148.489654	1193.817075	-62.800272	153.382053	1202.113679	-430.307366	213.044627	1042.160564	-46.801110	256.829014	966.647232	-59.980632	260.327069	881.418879	-67.965812	287.512120	978.671856	-78.861863	287.069018	737.745249	-96.124304	263.475996	726.393087	-208.571121	210.045525	631.882592	-77.624165	184.634337	545.861051	-96.959616	119.920266	490.171827	-108.701163	214.222159	533.698433	-119.284096	49.807814	357.784009	-124.528868	77.911530	359.398080	-206.830384	-17.490392	367.955370	-166.829768	224.462280	187.596277	-153.790328	154.598184	205.572361	-100.328825	207.388633	1135.203064	-445.053179	286.191570	1099.918392	-454.089672	309.231729	1126.318880	-442.837209	337.926269	1028.541631	-465.930776	445.787310	903.003870	-453.083250	484.366859	879.412134	-346.712029	413.991197	786.914298	-475.736659	395.925814	704.211366	-452.632766	338.167207	636.831727	-448.356333	421.241245	696.496257	-423.439449	269.284464	508.177135	-436.229181	263.676823	512.928894	-349.708282	186.539517	489.895506	-394.446260	486.764067	461.173180	-401.380902	414.073472	427.622270	-462.460546	-176.847203	935.606102	-279.244153	-2.832293	86.359010	-484.990530	-15.018043	80.545936	-84.149873	
